<svg version="1.1" xmlns="http://www.w3.org/2000/svg"  viewBox="0 0 48 48" width="48" height="48"><path d="M0 0 C15.84 0 31.68 0 48 0 C48 15.84 48 31.68 48 48 C32.16 48 16.32 48 0 48 C0 32.16 0 16.32 0 0 Z " transform="translate(0,0)" style="fill: #0379FA;"></path><path d="M0 0 C1.04220703 0.43119141 1.04220703 0.43119141 2.10546875 0.87109375 C1.21196693 6.18006311 -2.52861325 9.0189397 -6.20703125 12.68359375 C-6.88443359 13.38935547 -7.56183594 14.09511719 -8.25976562 14.82226562 C-9.24879883 15.81516602 -9.24879883 15.81516602 -10.2578125 16.828125 C-10.85891846 17.4363208 -11.46002441 18.0445166 -12.0793457 18.67114258 C-13.89453125 19.87109375 -13.89453125 19.87109375 -15.99951172 19.65209961 C-19.76726676 18.09927194 -22.52362084 15.12595631 -24.89453125 11.87109375 C-24.83203125 8.93359375 -24.83203125 8.93359375 -23.89453125 6.87109375 C-20.00920067 7.44669828 -17.86406282 9.4087956 -14.89453125 11.87109375 C-14.08628906 10.99324219 -13.27804688 10.11539062 -12.4453125 9.2109375 C-11.3666993 8.07604883 -10.28722704 6.9419762 -9.20703125 5.80859375 C-8.67658203 5.22787109 -8.14613281 4.64714844 -7.59960938 4.04882812 C-3.54237011 -0.15775737 -3.54237011 -0.15775737 0 0 Z " transform="translate(36.89453125,14.12890625)" style="fill: #F2F8FF;"></path></svg>